<svg t="1680096532204" class="icon" viewBox="0 0 1195 1024" version="1.1" xmlns="http://www.w3.org/2000/svg" p-id="3916" width="128" height="128">
	<path d="M686.487836 231.840427C719.240647 264.86198 719.171129 318.107477 686.279168 350.997788 672.232789 365.045817 672.232789 387.81787 686.279168 401.865842 700.32714 415.91387 723.09925 415.91387 737.147221 401.865842 798.209422 340.809956 798.209422 241.852814 737.159851 180.760576 737.07611 180.676779 736.982812 180.60726 736.899015 180.525056 704.188871 147.536668 704.266354 94.284914 737.147221 61.408768 751.195193 47.360796 751.195193 24.582428 737.147221 10.535993 723.09925-3.511979 700.32714-3.511979 686.279168 10.535993 625.216967 71.596601 625.216967 170.596466 686.279168 231.652352 686.345557 231.720334 686.419854 231.774037 686.487836 231.840427ZM470.659015 231.872057C503.375531 264.895204 503.298048 318.116978 470.41718 350.997788 456.369209 365.045817 456.369209 387.81787 470.41718 401.865842 484.463616 415.91387 507.243577 415.91387 521.289956 401.865842 582.345842 340.809956 582.345842 241.852814 521.296327 180.760576 521.226752 180.691001 521.149269 180.634112 521.079751 180.564594 488.330069 147.580985 488.396459 94.299136 521.289956 61.408768 535.337984 47.360796 535.337984 24.582428 521.289956 10.535993 507.243577-3.511979 484.463616-3.511979 470.41718 10.535993 409.35498 71.596601 409.35498 170.596466 470.41718 231.652352 470.494663 231.729778 470.581589 231.794631 470.659015 231.872057ZM1146.525924 396.110393 1110.27018 396.110393C1110.504107 393.274539 1110.663794 390.424519 1110.663794 387.545998 1110.663794 330.411918 1065.649209 282.607332 989.737586 246.318421 971.812068 237.75397 950.336171 245.336747 941.771776 263.260729 933.20101 281.179932 940.790101 302.655772 958.709305 311.226539 1012.324693 336.851797 1038.721365 364.884594 1038.721365 387.545998 1038.721365 456.314254 839.419164 529.77573 591.213796 529.77573 343.032092 529.77573 143.736206 456.314254 143.736206 387.545998 143.736206 364.168476 171.743687 335.21573 228.212281 309.120967 246.248448 300.792092 254.109468 279.414215 245.778944 261.384363 237.443755 243.348196 216.072192 235.487175 198.036025 243.8177 118.857045 280.402204 71.800149 329.058816 71.800149 387.545998 71.800149 390.424519 71.95978 393.274539 72.193764 396.110393L35.968057 396.110393C16.104505 396.110393 0 412.214955 0 432.07845 0 451.943538 16.104505 468.046507 35.968057 468.046507L73.774478 468.046507C73.617977 473.375118 73.523143 478.711694 73.523143 484.057771 73.523143 659.362816 156.805746 820.395406 293.853867 919.181881L293.844366 919.197696C293.906034 919.237177 293.969237 919.273529 294.030905 919.311474 294.28224 919.493291 294.530389 919.678236 294.781724 919.858404L294.827577 919.7952C375.391346 969.59306 479.667655 997.46304 589.990286 997.46304 700.29238 997.46304 804.571876 969.588338 885.13718 919.782571L885.192533 919.858404C885.494443 919.641884 885.79163 919.418994 886.09354 919.202418 886.095132 919.200825 886.098261 919.199232 886.099854 919.197696L903.075385 908.646286 903.075385 906.42853C1030.002062 806.86592 1106.452708 651.993429 1106.452708 484.057771 1106.452708 478.711694 1106.357874 473.375118 1106.201372 468.046507L1146.525924 468.046507C1166.391012 468.046507 1182.49398 451.943538 1182.49398 432.07845 1182.49398 412.214955 1166.391012 396.110393 1146.525924 396.110393ZM846.137287 859.305244C777.433828 901.420715 686.751801 925.520612 589.990286 925.520612 493.282532 925.520612 402.677988 901.464974 333.996601 859.420615 221.405639 777.359929 151.194112 646.200036 145.810148 501.957973 236.830436 564.235776 402.63845 601.718158 591.213796 601.718158 778.055054 601.718158 942.547911 564.929707 1034.099314 503.687339 1028.223716 647.161116 958.17819 777.571726 846.137287 859.305244L846.137287 859.305244ZM699.313892 706.070357C699.313892 706.070357 699.313892 706.07195 699.312356 706.07195 677.461845 726.510876 643.864917 726.491876 622.025444 706.808548 620.624953 704.299918 618.94144 701.903531 616.888092 699.71109 568.163499 647.695417 486.526464 645.014471 434.479161 693.721657 434.472846 693.727972 434.466532 693.735879 434.460217 693.742194 411.446272 715.289202 375.328085 714.102101 353.763726 691.078656 340.185202 676.580181 317.419463 675.838805 302.920932 689.41733 288.422457 703.002169 287.674766 725.761593 301.259605 740.260068 349.984142 792.27574 431.633863 794.963001 483.649536 746.236814 483.660572 746.227371 483.66848 746.216277 483.67798 746.206777 505.53162 725.805852 539.100103 725.834297 560.89526 745.490716 562.298994 748.008846 563.990357 750.413141 566.051669 752.610361 614.812558 804.613348 696.436964 807.2927 748.484267 758.587108 748.487396 758.583979 748.490581 758.580793 748.495303 758.577607 748.495303 758.577607 748.496896 758.576071 748.496896 758.574478 771.521877 737.006933 807.632156 738.186183 829.188665 761.217479 842.760875 775.722268 865.526613 776.481052 880.031403 762.902528 894.534656 749.331911 895.288661 726.56458 881.716508 712.05979 832.998229 660.007765 751.342194 657.339449 699.313892 706.070357" fill="#1296db" p-id="3917"></path>
</svg>

