<?xml version="1.0" standalone="no"?>
<!DOCTYPE svg PUBLIC "-//W3C//DTD SVG 1.1//EN" "http://www.w3.org/Graphics/SVG/1.1/DTD/svg11.dtd">
<svg t="1680016263306" class="icon" viewBox="0 0 1024 1024" version="1.1" xmlns="http://www.w3.org/2000/svg" p-id="4070" xmlns:xlink="http://www.w3.org/1999/xlink" width="128" height="128">
	<path d="M662.07967 690l294.698-569.412c4.813-9.276 16.432-12.885 26.098-7.631 9.116 4.942 12.72 16.818 7.63 26.674L689.06767 722.064a18.24 18.24 0 0 1-0.283 0.524c-2.192 44.008-20.337 84.868-51.695 115.647C603.78467 871.743 559.34567 890 512.00967 890c-47.334 0-91.775-18.257-125.08-51.765-33.5-32.88-51.92-77.267-51.92-124.706C335.00967 700.57 345.61767 690 358.60967 690h303.47zM85.00567 515h467.438c11.358 0 20.565 8.954 20.565 20s-9.207 20-20.565 20h-446.5c6.456 17.844 9.875 36.765 9.948 55.927l0.835 219.651c0.155 41.026 16.437 79.566 45.846 108.521C191.98167 968.054 231.03967 984 272.55167 984h478.916c41.513 0 80.57-15.946 109.978-44.9 29.409-28.956 45.691-67.496 45.847-108.522l0.835-219.651c0.148-38.858 14.054-76.727 39.157-106.633 0.075-0.09 0.15-0.177 0.226-0.264l40.911-47.062c7.283-8.377 20.06-9.336 28.538-2.137 8.478 7.197 9.446 19.824 2.163 28.203l-40.792 46.925c-19.06 22.767-29.616 51.566-29.729 81.118l-0.834 219.652c-0.198 51.681-20.708 100.231-57.755 136.707-37.047 36.476-86.25 56.564-138.545 56.564H272.55167c-52.294 0-101.497-20.088-138.545-56.564C96.95967 930.96 76.44967 882.41 76.25267 830.73l-0.834-219.652c-0.113-29.551-10.668-58.351-29.729-81.118L4.89667 483.034c-7.283-8.38-6.315-21.006 2.164-28.203 8.477-7.2 21.254-6.242 28.537 2.137l40.911 47.062c0.076 0.087 0.151 0.175 0.226 0.264A167.134 167.134 0 0 1 85.00667 515zM375.00967 730c5.03 29.19 18.266 55.967 38.056 77.333C439.73367 834.81 474.71867 850 512.00967 850c37.29 0 72.276-15.19 98.944-42.667C630.74367 785.967 643.97767 759.19 649.00967 730H375.00967z m-7-342c-3.233 0-6.8-0.94-10-3-9.43-5.661-12.423-17.987-7-27 6.308-10.428 13.142-18.618 20-26 14.513-18.222 26.172-32.192 26-62 0.172-30.082-11.487-44.05-26-61-16.177-19.821-36-43.573-36-88 0-44.665 19.824-68.415 36-88 6.219-7.248 12.328-14.566 17-23 5.362-9.448 17.51-12.848 27-7 9.663 5.037 13.042 17.262 8 27-6.804 11.375-14.403 20.478-22 29-14.512 17.968-26.172 31.937-26 62-0.172 29.825 11.488 43.795 26 61 16.178 19.566 36 43.317 36 88 0 44.409-19.822 68.16-36 87-5.655 7.321-11.233 14.003-16 21-3.419 6.569-9.985 10-17 10z m244 0c-3.234 0-6.8-0.94-10-3-9.43-5.661-12.423-17.988-7-27 6.308-10.428 13.142-18.617 20-26 14.513-18.221 26.172-32.192 26-62 0.172-30.082-11.487-44.05-26-61-16.176-19.821-36-43.573-36-88 0-44.665 19.824-68.415 36-88 6.22-7.248 12.328-14.566 17-23 5.362-9.448 17.51-12.849 27-7 9.662 5.037 13.042 17.263 8 27-6.805 11.375-14.404 20.479-22 29-14.513 17.968-26.172 31.937-26 62-0.172 29.825 11.487 43.796 26 61 16.177 19.566 36 43.317 36 88 0 44.409-19.823 68.161-36 87-5.657 7.321-11.234 14.003-16 21-3.42 6.569-9.985 10-17 10z" fill="#d4237a" p-id="4071"></path>
</svg>